<svg xmlns="http://www.w3.org/2000/svg" width="39" height="39" viewBox="0 0 39 39">
  <g id="audiovisualequipment" transform="translate(0 -0.5)">
    <path id="Path_1" data-name="Path 1" d="M4.083,1.25H14.917A3.332,3.332,0,0,1,18.25,4.583V26.667A3.332,3.332,0,0,1,14.917,30H4.083A3.332,3.332,0,0,1,.75,26.667V4.583A3.332,3.332,0,0,1,4.083,1.25Z" fill="#f8eeed"/>
    <path id="Path_2" data-name="Path 2" d="M9.5,17.5a3.75,3.75,0,1,1-3.75,3.75A3.749,3.749,0,0,1,9.5,17.5Z" fill="#f8eeed"/>
    <path id="Path_3" data-name="Path 3" d="M9.5,7.5A2.5,2.5,0,1,1,7,10,2.5,2.5,0,0,1,9.5,7.5Z" fill="#f8eeed"/>
    <path id="Path_4" data-name="Path 4" d="M9.5,30v0Z" fill="#f8eeed"/>
    <path id="Path_5" data-name="Path 5" d="M5.75,38.75h0Z" fill="#f8eeed"/>
    <path id="Path_6" data-name="Path 6" d="M22.215,2.715A4.987,4.987,0,0,1,25.75,1.25h7.5a5,5,0,0,1,5,5V25a5,5,0,0,1-5,5h-7.5a4.987,4.987,0,0,1-3.535-1.465" fill="#f8eeed"/>
    <path id="Path_7" data-name="Path 7" d="M29.5,17.5a3.75,3.75,0,1,1-3.75,3.75A3.749,3.749,0,0,1,29.5,17.5Z" fill="#f8eeed"/>
    <path id="Path_8" data-name="Path 8" d="M29.5,7.5A2.5,2.5,0,1,1,27,10,2.5,2.5,0,0,1,29.5,7.5Z" fill="#f8eeed"/>
    <path id="Path_9" data-name="Path 9" d="M29.5,30v0Z" fill="#f8eeed"/>
    <path id="Path_10" data-name="Path 10" d="M25.75,38.75h0Z" fill="#f8eeed"/>
    <path id="Path_11" data-name="Path 11" d="M9.5,30v8.75m-3.75,0h7.5M22.215,2.715A4.987,4.987,0,0,1,25.75,1.25h7.5a5,5,0,0,1,5,5V25a5,5,0,0,1-5,5h-7.5a4.987,4.987,0,0,1-3.535-1.465M29.5,30v8.75m-3.75,0h7.5M4.083,1.25H14.917A3.332,3.332,0,0,1,18.25,4.583V26.667A3.332,3.332,0,0,1,14.917,30H4.083A3.332,3.332,0,0,1,.75,26.667V4.583A3.332,3.332,0,0,1,4.083,1.25ZM9.5,17.5a3.75,3.75,0,1,1-3.75,3.75A3.749,3.749,0,0,1,9.5,17.5Zm0-10A2.5,2.5,0,1,1,7,10,2.5,2.5,0,0,1,9.5,7.5Zm20,10a3.75,3.75,0,1,1-3.75,3.75A3.749,3.749,0,0,1,29.5,17.5Zm0-10A2.5,2.5,0,1,1,27,10,2.5,2.5,0,0,1,29.5,7.5Z" fill="#f8eeed" stroke="#d74f3f" stroke-linecap="round" stroke-linejoin="round" stroke-width="1.5"/>
  </g>
</svg>
