<svg xmlns="http://www.w3.org/2000/svg" width="39.223" height="29.713" viewBox="0 0 39.223 29.713">
  <g id="clothing" transform="translate(0.113 -0.727)">
    <path id="Path_12" data-name="Path 12" d="M.75,14.688V5.228A3.747,3.747,0,0,1,5.893,1.747l4.928,1.97A7.519,7.519,0,0,1,14.548,6.96L21.09,18.41A7.5,7.5,0,0,0,27.6,22.188H33A2.5,2.5,0,0,1,35.08,23.3l2.962,4.443A1.25,1.25,0,0,1,37,29.688H22.263a7.5,7.5,0,0,1-6.24-3.333l-6.667-9.99A3.753,3.753,0,0,0,6.237,14.7Z" fill="#f8eeed"/>
    <path id="Path_13" data-name="Path 13" d="M.75,14.688l2.2,13.225a2.127,2.127,0,0,0,4.215-.167L8.25,15.278" fill="#f8eeed"/>
    <path id="Path_14" data-name="Path 14" d="M.75,14.688V5.228A3.747,3.747,0,0,1,5.893,1.747l4.928,1.97A7.519,7.519,0,0,1,14.548,6.96L21.09,18.41A7.5,7.5,0,0,0,27.6,22.188H33A2.5,2.5,0,0,1,35.08,23.3l2.962,4.443A1.25,1.25,0,0,1,37,29.688H22.263a7.5,7.5,0,0,1-6.24-3.333l-6.667-9.99A3.753,3.753,0,0,0,6.237,14.7Zm0,0,2.2,13.225a2.127,2.127,0,0,0,4.215-.167L8.25,15.278" fill="none" stroke="#d74f3f" stroke-linecap="round" stroke-linejoin="round" stroke-width="1.5"/>
  </g>
</svg>
