<svg xmlns="http://www.w3.org/2000/svg" width="39" height="39.133" viewBox="0 0 39 39.133">
  <g id="drones" transform="translate(0 -0.498)">
    <path id="Path_25" data-name="Path 25" d="M38.25,8.75a2.5,2.5,0,0,0-2.5-2.5H33.27A7.272,7.272,0,0,1,27.7,3.882a7.5,7.5,0,0,0-11.407,0A7.272,7.272,0,0,1,10.73,6.25H8.25a2.5,2.5,0,0,0,0,5h2.48A7.272,7.272,0,0,1,16.3,13.618a7.5,7.5,0,0,0,11.407,0A7.272,7.272,0,0,1,33.27,11.25h2.48A2.5,2.5,0,0,0,38.25,8.75Z" fill="#f8eeed"/>
    <path id="Path_26" data-name="Path 26" d="M5.75,1.25h0Z" fill="#f8eeed"/>
    <path id="Path_27" data-name="Path 27" d="M33.25,1.25h0Z" fill="#f8eeed"/>
    <path id="Path_28" data-name="Path 28" d="M14.383,12.112a14.558,14.558,0,0,0-5.8,8.54Z" fill="#f8eeed"/>
    <path id="Path_29" data-name="Path 29" d="M29.617,12.112a14.553,14.553,0,0,1,5.8,8.54,2.525,2.525,0,0,1-1.885,3.032,2.592,2.592,0,0,1-.555.067H30.75" fill="#f8eeed"/>
    <path id="Path_30" data-name="Path 30" d="M22,16.25A3.75,3.75,0,1,1,18.25,20,3.749,3.749,0,0,1,22,16.25Z" fill="#f8eeed"/>
    <path id="Path_31" data-name="Path 31" d="M13.25,26.25H5.75a5,5,0,0,0-5,5v5.182a2.318,2.318,0,0,0,4.392,1.037L7,33.75h5l1.86,3.72a2.318,2.318,0,0,0,4.39-1.038V31.25A5,5,0,0,0,13.25,26.25Z" fill="#f8eeed"/>
    <path id="Path_32" data-name="Path 32" d="M5.75,1.25h5m22.5,0h5M14.383,12.112a14.558,14.558,0,0,0-5.8,8.54m21.033-8.54a14.553,14.553,0,0,1,5.8,8.54,2.525,2.525,0,0,1-1.885,3.032,2.592,2.592,0,0,1-.555.067H30.75m7.5-15a2.5,2.5,0,0,0-2.5-2.5H33.27A7.272,7.272,0,0,1,27.7,3.882a7.5,7.5,0,0,0-11.407,0A7.272,7.272,0,0,1,10.73,6.25H8.25a2.5,2.5,0,0,0,0,5h2.48A7.272,7.272,0,0,1,16.3,13.618a7.5,7.5,0,0,0,11.407,0A7.272,7.272,0,0,1,33.27,11.25h2.48A2.5,2.5,0,0,0,38.25,8.75ZM22,16.25A3.75,3.75,0,1,1,18.25,20,3.749,3.749,0,0,1,22,16.25Zm-8.75,10H5.75a5,5,0,0,0-5,5v5.182a2.318,2.318,0,0,0,4.392,1.037L7,33.75h5l1.86,3.72a2.318,2.318,0,0,0,4.39-1.038V31.25A5,5,0,0,0,13.25,26.25Z" fill="none" stroke="#d74f3f" stroke-linecap="round" stroke-linejoin="round" stroke-width="1.5"/>
  </g>
</svg>
