<svg xmlns="http://www.w3.org/2000/svg" width="39.397" height="39" viewBox="0 0 39.397 39">
  <g id="electronics" transform="translate(0.199 -0.5)">
    <path id="Path_33" data-name="Path 33" d="M2.417,23.75H26.583a1.667,1.667,0,0,1,1.667,1.667V37.083a1.667,1.667,0,0,1-1.667,1.667H2.417A1.667,1.667,0,0,1,.75,37.083V25.417A1.667,1.667,0,0,1,2.417,23.75Z" fill="#f8eeed"/>
    <path id="Path_34" data-name="Path 34" d="M38.25,11.25V3.75a2.5,2.5,0,0,0-2.5-2.5H3.25a2.5,2.5,0,0,0-2.5,2.5v7.5" fill="#f8eeed"/>
    <path id="Path_35" data-name="Path 35" d="M25.75,18.75V1.25h5v17.5" fill="#f8eeed"/>
    <path id="Path_36" data-name="Path 36" d="M8.25,28.75v0Z" fill="#f8eeed"/>
    <path id="Path_37" data-name="Path 37" d="M5.75,31.25h0Z" fill="#f8eeed"/>
    <path id="Path_38" data-name="Path 38" d="M22.625,32.5a.625.625,0,0,1,.625.625Z" fill="#f8eeed"/>
    <path id="Path_39" data-name="Path 39" d="M22,33.125a.625.625,0,0,1,.625-.625Z" fill="#f8eeed"/>
    <path id="Path_40" data-name="Path 40" d="M22.625,33.75A.625.625,0,0,1,22,33.125Z" fill="#f8eeed"/>
    <path id="Path_41" data-name="Path 41" d="M23.25,33.125a.625.625,0,0,1-.625.625Z" fill="#f8eeed"/>
    <path id="Path_42" data-name="Path 42" d="M17,32.5a.625.625,0,0,1,.625.625Z" fill="#f8eeed"/>
    <path id="Path_43" data-name="Path 43" d="M16.375,33.125A.625.625,0,0,1,17,32.5Z" fill="#f8eeed"/>
    <path id="Path_44" data-name="Path 44" d="M17,33.75a.625.625,0,0,1-.625-.625Z" fill="#f8eeed"/>
    <path id="Path_45" data-name="Path 45" d="M17.625,33.125A.625.625,0,0,1,17,33.75Z" fill="#f8eeed"/>
    <path id="Path_46" data-name="Path 46" d="M.75,11.25l1.93,5.79a2.5,2.5,0,0,0,2.372,1.71h28.9a2.5,2.5,0,0,0,2.372-1.71l1.93-5.79Z" fill="#f8eeed"/>
    <path id="Path_47" data-name="Path 47" d="M25.75,6.25h-15a2.5,2.5,0,0,1-2.5-2.5V1.25" fill="#f8eeed"/>
    <path id="Path_48" data-name="Path 48" d="M33.25,18.75V30a2.5,2.5,0,0,1-2.5,2.5h-2.5" fill="#f8eeed"/>
    <path id="Path_49" data-name="Path 49" d="M38.25,11.25V3.75a2.5,2.5,0,0,0-2.5-2.5H3.25a2.5,2.5,0,0,0-2.5,2.5v7.5m37.5,0-1.93,5.79a2.5,2.5,0,0,1-2.372,1.71H5.052A2.5,2.5,0,0,1,2.68,17.04L.75,11.25m37.5,0H.75m25,7.5V1.25h5v17.5m-22.5,10v5m-2.5-2.5h5m15-25h-15a2.5,2.5,0,0,1-2.5-2.5V1.25m25,17.5V30a2.5,2.5,0,0,1-2.5,2.5h-2.5M2.417,23.75H26.583a1.667,1.667,0,0,1,1.667,1.667V37.083a1.667,1.667,0,0,1-1.667,1.667H2.417A1.667,1.667,0,0,1,.75,37.083V25.417A1.667,1.667,0,0,1,2.417,23.75ZM22.625,32.5a.625.625,0,1,1-.625.625A.625.625,0,0,1,22.625,32.5ZM17,32.5a.625.625,0,1,1-.625.625A.625.625,0,0,1,17,32.5Z" fill="none" stroke="#d74f3f" stroke-linecap="round" stroke-linejoin="round" stroke-width="1.5"/>
  </g>
</svg>
