<svg xmlns="http://www.w3.org/2000/svg" width="39" height="39" viewBox="0 0 39 39">
  <g id="film_photography" data-name="film&amp;photography" transform="translate(0 -0.5)">
    <path id="Path_50" data-name="Path 50" d="M9.5,27.5a12.959,12.959,0,0,1-3.045,8.345l-2.443,2.9H34.988l-2.443-2.9A12.959,12.959,0,0,1,29.5,27.5" fill="#f8eeed"/>
    <path id="Path_51" data-name="Path 51" d="M14.5,26.25h0Z" fill="#f8eeed"/>
    <path id="Path_52" data-name="Path 52" d="M17.5,26.25l-3,7.5Z" fill="#f8eeed"/>
    <path id="Path_53" data-name="Path 53" d="M21.435,26.25l3.065,7.5Z" fill="#f8eeed"/>
    <path id="Path_54" data-name="Path 54" d="M15.5,31.25h0Z" fill="#f8eeed"/>
    <path id="Path_55" data-name="Path 55" d="M38.25,33.75h0Z" fill="#f8eeed"/>
    <path id="Path_56" data-name="Path 56" d="M12,22.04a.408.408,0,0,1-.35.46.4.4,0,0,1-.235-.038L8.167,21.2A2.015,2.015,0,0,1,7,19.447V15.553A2.015,2.015,0,0,1,8.167,13.8l3.245-1.263a.408.408,0,0,1,.547.187A.4.4,0,0,1,12,12.96Z" fill="#f8eeed"/>
    <path id="Path_57" data-name="Path 57" d="M3.25,20v0Z" fill="#f8eeed"/>
    <path id="Path_58" data-name="Path 58" d="M.75,33.75h0Z" fill="#f8eeed"/>
    <path id="Path_59" data-name="Path 59" d="M7.1,20H2.625A1.876,1.876,0,0,1,.75,18.125v-1.25A1.876,1.876,0,0,1,2.625,15H7.1" fill="#f8eeed"/>
    <path id="Path_60" data-name="Path 60" d="M27,22.04a.408.408,0,0,0,.35.46.4.4,0,0,0,.235-.038L30.83,21.2A2.015,2.015,0,0,0,32,19.447V15.553A2.015,2.015,0,0,0,30.83,13.8l-3.245-1.263a.408.408,0,0,0-.547.187A.4.4,0,0,0,27,12.96Z" fill="#f8eeed"/>
    <path id="Path_61" data-name="Path 61" d="M35.75,20v0Z" fill="#f8eeed"/>
    <path id="Path_62" data-name="Path 62" d="M31.9,20h4.473a1.876,1.876,0,0,0,1.875-1.875v-1.25A1.876,1.876,0,0,0,36.375,15H31.9" fill="#f8eeed"/>
    <path id="Path_63" data-name="Path 63" d="M9.917,1.25H29.083A1.667,1.667,0,0,1,30.75,2.917V4.583A1.667,1.667,0,0,1,29.083,6.25H9.917A1.667,1.667,0,0,1,8.25,4.583V2.917A1.667,1.667,0,0,1,9.917,1.25Z" fill="#f8eeed"/>
    <path id="Path_64" data-name="Path 64" d="M9.5,27.5a12.959,12.959,0,0,1-3.045,8.345l-2.443,2.9H34.988l-2.443-2.9A12.959,12.959,0,0,1,29.5,27.5m-15-1.25h10m-7,0-3,7.5m6.935-7.5,3.065,7.5m-9-2.5h7.978m14.772,2.5H31.107M3.25,20V33.75m-2.5,0H7.893M7.1,20H2.625A1.876,1.876,0,0,1,.75,18.125v-1.25A1.876,1.876,0,0,1,2.625,15H7.1M35.75,20V33.75M31.9,20h4.473a1.876,1.876,0,0,0,1.875-1.875v-1.25A1.876,1.876,0,0,0,36.375,15H31.9M12,22.04a.408.408,0,0,1-.35.46.4.4,0,0,1-.235-.038L8.167,21.2A2.015,2.015,0,0,1,7,19.447V15.553A2.015,2.015,0,0,1,8.167,13.8l3.245-1.263a.408.408,0,0,1,.547.187A.4.4,0,0,1,12,12.96Zm15,0a.408.408,0,0,0,.35.46.4.4,0,0,0,.235-.038L30.83,21.2A2.015,2.015,0,0,0,32,19.447V15.553A2.015,2.015,0,0,0,30.83,13.8l-3.245-1.263a.408.408,0,0,0-.547.187A.4.4,0,0,0,27,12.96ZM9.917,1.25H29.083A1.667,1.667,0,0,1,30.75,2.917V4.583A1.667,1.667,0,0,1,29.083,6.25H9.917A1.667,1.667,0,0,1,8.25,4.583V2.917A1.667,1.667,0,0,1,9.917,1.25Z" fill="none" stroke="#d74f3f" stroke-linecap="round" stroke-linejoin="round" stroke-width="1.5"/>
  </g>
</svg>
