<svg xmlns="http://www.w3.org/2000/svg" width="37.064" height="39.564" viewBox="0 0 37.064 39.564">
  <g id="holiday_travel" data-name="holiday&amp;travel" transform="translate(-0.146 -0.215)">
    <path id="Path_65" data-name="Path 65" d="M23.73,1.25,1.2,36.833a1.248,1.248,0,0,0,1.055,1.918H35.21a1.248,1.248,0,0,0,1.055-1.918L13.73,1.25" fill="#f8eeed"/>
    <path id="Path_66" data-name="Path 66" d="M11.23,38.75l6.437-10.713a1.25,1.25,0,0,1,1.715-.43,1.235,1.235,0,0,1,.43.43L26.238,38.75" fill="#f8eeed"/>
    <path id="Path_67" data-name="Path 67" d="M16.23,21.25h0Z" fill="#f8eeed"/>
    <path id="Path_68" data-name="Path 68" d="M23.73,1.25,1.2,36.833a1.248,1.248,0,0,0,1.055,1.918H35.21a1.248,1.248,0,0,0,1.055-1.918L13.73,1.25m-2.5,37.5,6.437-10.713a1.25,1.25,0,0,1,1.715-.43,1.235,1.235,0,0,1,.43.43L26.238,38.75M16.23,21.25h5" fill="none" stroke="#d74f3f" stroke-linecap="round" stroke-linejoin="round" stroke-width="1.5"/>
  </g>
</svg>
