<svg id="home_office_garden" data-name="home,office&amp;garden" xmlns="http://www.w3.org/2000/svg" width="39" height="34.006" viewBox="0 0 39 34.006">
  <path id="Path_69" data-name="Path 69" d="M17.417.75h17.5A3.332,3.332,0,0,1,38.25,4.083v8.333a3.332,3.332,0,0,1-3.333,3.333h-17.5a1.667,1.667,0,0,1-1.667-1.667V2.417A1.667,1.667,0,0,1,17.417.75Z" fill="#f8eeed"/>
  <path id="Path_70" data-name="Path 70" d="M27.8,30.063a3.712,3.712,0,0,0,7.35-1.05L33.25,15.75h-7.5Z" fill="#f8eeed"/>
  <path id="Path_71" data-name="Path 71" d="M9.917,3.25H15.75v10H9.917A1.667,1.667,0,0,1,8.25,11.583V4.917A1.667,1.667,0,0,1,9.917,3.25Z" fill="#f8eeed"/>
  <path id="Path_72" data-name="Path 72" d="M8.25,8.25h0Z" fill="#f8eeed"/>
  <path id="Path_73" data-name="Path 73" d="M20.75,15.75l.447,2.23A5,5,0,0,0,26.1,22h.545" fill="#f8eeed"/>
  <path id="Path_74" data-name="Path 74" d="M25.75,5.75h0Z" fill="#f8eeed"/>
  <path id="Path_75" data-name="Path 75" d="M25.75,10.75h0Z" fill="#f8eeed"/>
  <path id="Path_76" data-name="Path 76" d="M8.25,8.25H.75m20,7.5.447,2.23A5,5,0,0,0,26.1,22h.545M25.75,5.75h5m-5,5h5M17.417.75h17.5A3.332,3.332,0,0,1,38.25,4.083v8.333a3.332,3.332,0,0,1-3.333,3.333h-17.5a1.667,1.667,0,0,1-1.667-1.667V2.417A1.667,1.667,0,0,1,17.417.75ZM27.8,30.063a3.712,3.712,0,0,0,7.35-1.05L33.25,15.75h-7.5ZM9.917,3.25H15.75v10H9.917A1.667,1.667,0,0,1,8.25,11.583V4.917A1.667,1.667,0,0,1,9.917,3.25Z" fill="none" stroke="#d74f3f" stroke-linecap="round" stroke-linejoin="round" stroke-width="1.5"/>
</svg>
