<svg xmlns="http://www.w3.org/2000/svg" width="39.159" height="39" viewBox="0 0 39.159 39">
  <g id="kids_baby" data-name="kids&amp;baby" transform="translate(0.159 -0.5)">
    <path id="Path_77" data-name="Path 77" d="M4.5,31.25A3.75,3.75,0,1,1,.75,35,3.749,3.749,0,0,1,4.5,31.25Z" fill="#f8eeed"/>
    <path id="Path_78" data-name="Path 78" d="M22,31.25A3.75,3.75,0,1,1,18.25,35,3.749,3.749,0,0,1,22,31.25Z" fill="#f8eeed"/>
    <path id="Path_79" data-name="Path 79" d="M24.5,26.25H5.2a2.5,2.5,0,0,1-2.425-1.893L.75,16.25h27.5" fill="#f8eeed"/>
    <path id="Path_80" data-name="Path 80" d="M22.607,31.3l8.18-21.813A5,5,0,0,1,35.468,6.24H38.25" fill="#f8eeed"/>
    <path id="Path_81" data-name="Path 81" d="M8.037,33.75h0Z" fill="#f8eeed"/>
    <path id="Path_82" data-name="Path 82" d="M.75,16.25a15,15,0,0,1,15-15v15" fill="#f8eeed"/>
    <path id="Path_83" data-name="Path 83" d="M15.75,16.25,2.792,8.69Z" fill="#f8eeed"/>
    <path id="Path_84" data-name="Path 84" d="M15.75,16.25,8.19,3.292Z" fill="#f8eeed"/>
    <path id="Path_85" data-name="Path 85" d="M24.5,26.25H5.2a2.5,2.5,0,0,1-2.425-1.893L.75,16.25m0,0h27.5m-27.5,0a15,15,0,0,1,15-15v15M22.607,31.3l8.18-21.813A5,5,0,0,1,35.468,6.24H38.25M8.037,33.75H18.463M15.75,16.25,2.792,8.69M15.75,16.25,8.19,3.292M4.5,31.25A3.75,3.75,0,1,1,.75,35,3.749,3.749,0,0,1,4.5,31.25Zm17.5,0A3.75,3.75,0,1,1,18.25,35,3.749,3.749,0,0,1,22,31.25Z" fill="none" stroke="#d74f3f" stroke-linecap="round" stroke-linejoin="round" stroke-width="1.5"/>
  </g>
</svg>
