<svg xmlns="http://www.w3.org/2000/svg" width="39.105" height="39.108" viewBox="0 0 39.105 39.108">
  <g id="musicalinstruments" transform="translate(-0.101 -0.294)">
    <path id="Path_86" data-name="Path 86" d="M20.538,29.833A2.5,2.5,0,0,1,22.6,27.082,5.014,5.014,0,0,0,25.368,25.7c2.442-2.44,1.833-7-1.365-10.2s-7.765-3.807-10.2-1.365a5.015,5.015,0,0,0-1.383,2.763,2.5,2.5,0,0,1-2.748,2.07,7.9,7.9,0,0,0-6.633,2.08C-.383,24.458.3,30.683,4.56,34.943s10.485,4.943,13.9,1.527A7.9,7.9,0,0,0,20.538,29.833Z" fill="#f8eeed"/>
    <path id="Path_87" data-name="Path 87" d="M30.188,5.775,32.84,3.123a2.5,2.5,0,0,1,3.535,3.535L33.723,9.31a2.5,2.5,0,0,1-3.535-3.535Z" fill="#f8eeed"/>
    <path id="Path_88" data-name="Path 88" d="M30.19,9.31,24,15.5Z" fill="#f8eeed"/>
    <path id="Path_89" data-name="Path 89" d="M31.073,1.355l1.768,1.768Z" fill="#f8eeed"/>
    <path id="Path_90" data-name="Path 90" d="M36.377,6.658l1.768,1.768Z" fill="#f8eeed"/>
    <path id="Path_91" data-name="Path 91" d="M33.725,9.31l1.768,1.768Z" fill="#f8eeed"/>
    <path id="Path_92" data-name="Path 92" d="M28.422,4.007,30.19,5.775Z" fill="#f8eeed"/>
    <path id="Path_93" data-name="Path 93" d="M17.815,19.185a2.5,2.5,0,1,1-2.5,2.5A2.5,2.5,0,0,1,17.815,19.185Z" fill="#f8eeed"/>
    <path id="Path_94" data-name="Path 94" d="M8.093,27.872l3.535,3.535Z" fill="#f8eeed"/>
    <path id="Path_95" data-name="Path 95" d="M30.19,9.31,24,15.5m7.07-14.142,1.768,1.768m3.535,3.535,1.768,1.768m-4.42.883,1.768,1.768M28.422,4.007,30.19,5.775m-22.1,22.1,3.535,3.535m8.91-1.573A2.5,2.5,0,0,1,22.6,27.082,5.014,5.014,0,0,0,25.368,25.7c2.442-2.44,1.833-7-1.365-10.2s-7.765-3.807-10.2-1.365a5.015,5.015,0,0,0-1.383,2.763,2.5,2.5,0,0,1-2.748,2.07,7.9,7.9,0,0,0-6.633,2.08C-.383,24.458.3,30.683,4.56,34.943s10.485,4.943,13.9,1.527A7.9,7.9,0,0,0,20.538,29.833Zm9.65-24.058L32.84,3.123a2.5,2.5,0,0,1,3.535,3.535L33.723,9.31a2.5,2.5,0,0,1-3.535-3.535ZM17.815,19.185a2.5,2.5,0,1,1-2.5,2.5A2.5,2.5,0,0,1,17.815,19.185Z" fill="none" stroke="#d74f3f" stroke-linecap="round" stroke-linejoin="round" stroke-width="1.5"/>
  </g>
</svg>
