<svg xmlns="http://www.w3.org/2000/svg" width="39" height="37.444" viewBox="0 0 39 37.444">
  <g id="party_events" data-name="party&amp;events" transform="translate(0 -0.338)">
    <path id="Path_96" data-name="Path 96" d="M36.388,29.875a.625.625,0,0,1,.625.625Z" fill="#f8eeed"/>
    <path id="Path_97" data-name="Path 97" d="M35.763,30.5a.625.625,0,0,1,.625-.625Z" fill="#f8eeed"/>
    <path id="Path_98" data-name="Path 98" d="M36.388,31.125a.625.625,0,0,1-.625-.625Z" fill="#f8eeed"/>
    <path id="Path_99" data-name="Path 99" d="M37.013,30.5a.625.625,0,0,1-.625.625Z" fill="#f8eeed"/>
    <path id="Path_100" data-name="Path 100" d="M17.625,34.833a.625.625,0,0,1,.625.625Z" fill="#f8eeed"/>
    <path id="Path_101" data-name="Path 101" d="M17,35.458a.625.625,0,0,1,.625-.625Z" fill="#f8eeed"/>
    <path id="Path_102" data-name="Path 102" d="M17.625,36.083A.625.625,0,0,1,17,35.458Z" fill="#f8eeed"/>
    <path id="Path_103" data-name="Path 103" d="M18.25,35.458a.625.625,0,0,1-.625.625Z" fill="#f8eeed"/>
    <path id="Path_104" data-name="Path 104" d="M37.625,11.083a.625.625,0,0,1,.625.625Z" fill="#f8eeed"/>
    <path id="Path_105" data-name="Path 105" d="M37,11.708a.625.625,0,0,1,.625-.625Z" fill="#f8eeed"/>
    <path id="Path_106" data-name="Path 106" d="M37.625,12.333A.625.625,0,0,1,37,11.708Z" fill="#f8eeed"/>
    <path id="Path_107" data-name="Path 107" d="M38.25,11.708a.625.625,0,0,1-.625.625Z" fill="#f8eeed"/>
    <path id="Path_108" data-name="Path 108" d="M1.375,27.333A.625.625,0,0,1,2,27.958Z" fill="#f8eeed"/>
    <path id="Path_109" data-name="Path 109" d="M.75,27.958a.625.625,0,0,1,.625-.625Z" fill="#f8eeed"/>
    <path id="Path_110" data-name="Path 110" d="M1.375,28.583a.625.625,0,0,1-.625-.625Z" fill="#f8eeed"/>
    <path id="Path_111" data-name="Path 111" d="M2,27.958a.625.625,0,0,1-.625.625Z" fill="#f8eeed"/>
    <path id="Path_112" data-name="Path 112" d="M24.5,2.333c4.142,0,7.5,3.918,7.5,8.75s-3.358,8.75-7.5,8.75S17,15.915,17,11.083,20.358,2.333,24.5,2.333Z" fill="#f8eeed"/>
    <path id="Path_113" data-name="Path 113" d="M24.5,19.833l-2.25,3a1.25,1.25,0,0,0,1,2h2.5a1.25,1.25,0,0,0,1-2Z" fill="#f8eeed"/>
    <path id="Path_114" data-name="Path 114" d="M24.762,24.833a4.4,4.4,0,0,0,.472,5.667,4.4,4.4,0,0,1,0,6.22l0,0" fill="#f8eeed"/>
    <path id="Path_115" data-name="Path 115" d="M14.5,2.255a6.673,6.673,0,0,0-3.753-1.167c-4.142,0-7.5,3.918-7.5,8.75s3.358,8.75,7.5,8.75a6.667,6.667,0,0,0,3.75-1.167" fill="#f8eeed"/>
    <path id="Path_116" data-name="Path 116" d="M10.75,18.583l2.25,3a1.25,1.25,0,0,1-1,2H9.5a1.25,1.25,0,0,1-1-2Z" fill="#f8eeed"/>
    <path id="Path_117" data-name="Path 117" d="M10.488,23.583a4.4,4.4,0,0,1-.472,5.667,4.4,4.4,0,0,0,0,6.22l0,0" fill="#f8eeed"/>
    <path id="Path_118" data-name="Path 118" d="M24.5,19.833c4.142,0,7.5-3.918,7.5-8.75s-3.358-8.75-7.5-8.75S17,6.252,17,11.083,20.358,19.833,24.5,19.833Zm0,0-2.25,3a1.25,1.25,0,0,0,1,2h2.5a1.25,1.25,0,0,0,1-2Zm.262,5a4.4,4.4,0,0,0,.472,5.667,4.4,4.4,0,0,1,0,6.22l0,0M14.5,2.255a6.673,6.673,0,0,0-3.753-1.167c-4.142,0-7.5,3.918-7.5,8.75s3.358,8.75,7.5,8.75a6.667,6.667,0,0,0,3.75-1.167m-4.008,6.162a4.4,4.4,0,0,1-.472,5.667,4.4,4.4,0,0,0,0,6.22l0,0m26.372-5.6a.625.625,0,1,1-.625.625A.625.625,0,0,1,36.388,29.875ZM17.625,34.833a.625.625,0,1,1-.625.625A.625.625,0,0,1,17.625,34.833Zm20-23.75a.625.625,0,1,1-.625.625A.625.625,0,0,1,37.625,11.083ZM1.375,27.333a.625.625,0,1,1-.625.625A.625.625,0,0,1,1.375,27.333Zm9.375-8.75,2.25,3a1.25,1.25,0,0,1-1,2H9.5a1.25,1.25,0,0,1-1-2Z" fill="none" stroke="#d74f3f" stroke-linecap="round" stroke-linejoin="round" stroke-width="1.5"/>
  </g>
</svg>
