<svg xmlns="http://www.w3.org/2000/svg" width="39.047" height="39.023" viewBox="0 0 39.047 39.023">
  <g id="projectors_screens" data-name="projectors&amp;screens" transform="translate(0.023 -0.477)">
    <path id="Path_119" data-name="Path 119" d="M18.677,23.75H5.75a5,5,0,0,0-5,5v7.5a2.5,2.5,0,0,0,2.5,2.5h32.5a2.5,2.5,0,0,0,2.5-2.5v-7.5a5,5,0,0,0-5-5h-.427" fill="#f8eeed"/>
    <path id="Path_120" data-name="Path 120" d="M25.75,18.75a7.5,7.5,0,1,1-7.5,7.5A7.5,7.5,0,0,1,25.75,18.75Z" fill="#f8eeed"/>
    <path id="Path_121" data-name="Path 121" d="M5.75,30v0Z" fill="#f8eeed"/>
    <path id="Path_122" data-name="Path 122" d="M10.75,30v0Z" fill="#f8eeed"/>
    <path id="Path_123" data-name="Path 123" d="M25.75,23.75a2.5,2.5,0,1,0,2.5,2.5A2.5,2.5,0,0,0,25.75,23.75Z" fill="#f8eeed"/>
    <path id="Path_124" data-name="Path 124" d="M14.5,12.333a1.428,1.428,0,0,0,2.065,1.275l9.647-4.823a1.427,1.427,0,0,0,0-2.552L16.565,1.4A1.426,1.426,0,0,0,14.5,2.677Z" fill="#f8eeed"/>
    <path id="Path_125" data-name="Path 125" d="M37.942,1.265a.417.417,0,1,1-.512.3.417.417,0,0,1,.512-.3Z" fill="#f8eeed"/>
    <path id="Path_126" data-name="Path 126" d="M36.333,8.032a1.138,1.138,0,1,0-.007.007" fill="#f8eeed"/>
    <path id="Path_127" data-name="Path 127" d="M34.058,15.753a.417.417,0,1,1-.51.3A.417.417,0,0,1,34.058,15.753Z" fill="#f8eeed"/>
    <path id="Path_128" data-name="Path 128" d="M1.058,1.265a.417.417,0,1,0,.512.3.417.417,0,0,0-.512-.3Z" fill="#f8eeed"/>
    <path id="Path_129" data-name="Path 129" d="M2.667,8.032a.462.462,0,1,0,.01,0A.021.021,0,0,0,2.667,8.032Z" fill="#f8eeed"/>
    <path id="Path_130" data-name="Path 130" d="M4.942,15.753a.417.417,0,1,0,.51.3A.417.417,0,0,0,4.942,15.753Z" fill="#f8eeed"/>
    <path id="Path_131" data-name="Path 131" d="M18.677,23.75H5.75a5,5,0,0,0-5,5v7.5a2.5,2.5,0,0,0,2.5,2.5h32.5a2.5,2.5,0,0,0,2.5-2.5v-7.5a5,5,0,0,0-5-5h-.427M5.75,30v2.5m5-2.5v2.5M36.333,8.032a1.138,1.138,0,1,0-.007.007M25.75,18.75a7.5,7.5,0,1,1-7.5,7.5A7.5,7.5,0,0,1,25.75,18.75Zm0,5a2.5,2.5,0,1,0,2.5,2.5A2.5,2.5,0,0,0,25.75,23.75ZM14.5,12.333a1.428,1.428,0,0,0,2.065,1.275l9.647-4.823a1.427,1.427,0,0,0,0-2.552L16.565,1.4A1.426,1.426,0,0,0,14.5,2.677ZM37.942,1.265a.417.417,0,1,1-.512.3.417.417,0,0,1,.512-.3ZM34.058,15.753a.417.417,0,1,1-.51.3A.417.417,0,0,1,34.058,15.753Zm-33-14.488a.417.417,0,1,0,.512.3.417.417,0,0,0-.512-.3ZM2.667,8.032a.462.462,0,1,0,.01,0A.021.021,0,0,0,2.667,8.032Zm2.275,7.722a.417.417,0,1,0,.51.3A.417.417,0,0,0,4.942,15.753Z" fill="none" stroke="#d74f3f" stroke-linecap="round" stroke-linejoin="round" stroke-width="1.5"/>
  </g>
</svg>
