<svg xmlns="http://www.w3.org/2000/svg" width="39.307" height="39.003" viewBox="0 0 39.307 39.003">
  <g id="sports" transform="translate(0 -0.5)">
    <path id="Path_132" data-name="Path 132" d="M10.75,1.25A4.375,4.375,0,1,1,6.375,5.625,4.374,4.374,0,0,1,10.75,1.25Z" fill="#f8eeed"/>
    <path id="Path_133" data-name="Path 133" d="M10.75,27.5v0Z" fill="#f8eeed"/>
    <path id="Path_134" data-name="Path 134" d="M18.557,23.3A10.039,10.039,0,0,1,15.75,20.42V36.253a2.5,2.5,0,0,1-5,0,2.5,2.5,0,0,1-5,0V25a2.5,2.5,0,0,1-5,0V20a7.5,7.5,0,0,1,7.5-7.5h4.417A7.5,7.5,0,0,1,18.25,15" fill="#f8eeed"/>
    <path id="Path_135" data-name="Path 135" d="M5.75,25v0Z" fill="#f8eeed"/>
    <path id="Path_136" data-name="Path 136" d="M29.937,1.888a1.247,1.247,0,0,1,1.628,0A20.251,20.251,0,0,1,38.25,17.5,68.061,68.061,0,0,1,35.083,37,2.5,2.5,0,0,1,32.7,38.748H28.8A2.5,2.5,0,0,1,26.412,37a68.061,68.061,0,0,1-3.167-19.5A20.253,20.253,0,0,1,29.937,1.888Z" fill="#f8eeed"/>
    <path id="Path_137" data-name="Path 137" d="M23.463,22.287,36.657,9.093Z" fill="#f8eeed"/>
    <path id="Path_138" data-name="Path 138" d="M24.918,31.457,38.247,18.128Z" fill="#f8eeed"/>
    <path id="Path_139" data-name="Path 139" d="M10.75,27.5v8.75M18.557,23.3A10.039,10.039,0,0,1,15.75,20.42V36.253a2.5,2.5,0,0,1-5,0,2.5,2.5,0,0,1-5,0V25m0,0a2.5,2.5,0,0,1-5,0V20a7.5,7.5,0,0,1,7.5-7.5h4.417A7.5,7.5,0,0,1,18.25,15M5.75,25V20m17.713,2.287L36.657,9.093M24.918,31.457,38.247,18.128M10.75,1.25A4.375,4.375,0,1,1,6.375,5.625,4.374,4.374,0,0,1,10.75,1.25Zm19.187.638a1.247,1.247,0,0,1,1.628,0A20.251,20.251,0,0,1,38.25,17.5,68.061,68.061,0,0,1,35.083,37,2.5,2.5,0,0,1,32.7,38.748H28.8A2.5,2.5,0,0,1,26.412,37a68.061,68.061,0,0,1-3.167-19.5A20.253,20.253,0,0,1,29.937,1.888Z" fill="none" stroke="#d74f3f" stroke-linecap="round" stroke-linejoin="round" stroke-width="1.5"/>
  </g>
</svg>
