<svg xmlns="http://www.w3.org/2000/svg" width="39" height="38.692" viewBox="0 0 39 38.692">
  <g id="storage" transform="translate(-0.008 -0.641)">
    <path id="Path_140" data-name="Path 140" d="M38.258,38.583v-26a2.5,2.5,0,0,0-1.323-2.207L20.685,1.71a2.5,2.5,0,0,0-2.352,0L2.083,10.377A2.5,2.5,0,0,0,.758,12.583v26" fill="#f8eeed"/>
    <path id="Path_141" data-name="Path 141" d="M19.508,28.583h-8.75a1.25,1.25,0,0,0-1.25,1.25v7.5a1.25,1.25,0,0,0,1.25,1.25h7.5a1.25,1.25,0,0,0,1.25-1.25Z" fill="#f8eeed"/>
    <path id="Path_142" data-name="Path 142" d="M28.258,28.583h-8.75v8.75a1.25,1.25,0,0,0,1.25,1.25h7.5a1.25,1.25,0,0,0,1.25-1.25v-7.5A1.25,1.25,0,0,0,28.258,28.583Z" fill="#f8eeed"/>
    <path id="Path_143" data-name="Path 143" d="M23.258,18.583h-7.5a1.25,1.25,0,0,0-1.25,1.25v8.75h10v-8.75A1.25,1.25,0,0,0,23.258,18.583Z" fill="#f8eeed"/>
    <path id="Path_144" data-name="Path 144" d="M38.258,38.583v-26a2.5,2.5,0,0,0-1.323-2.207L20.685,1.71a2.5,2.5,0,0,0-2.352,0L2.083,10.377A2.5,2.5,0,0,0,.758,12.583v26m18.75-10h-8.75a1.25,1.25,0,0,0-1.25,1.25v7.5a1.25,1.25,0,0,0,1.25,1.25h7.5a1.25,1.25,0,0,0,1.25-1.25m0-8.75v8.75m0-8.75h8.75a1.25,1.25,0,0,1,1.25,1.25v7.5a1.25,1.25,0,0,1-1.25,1.25h-7.5a1.25,1.25,0,0,1-1.25-1.25m3.75-18.75h-7.5a1.25,1.25,0,0,0-1.25,1.25v8.75h10v-8.75A1.25,1.25,0,0,0,23.258,18.583Z" fill="none" stroke="#d74f3f" stroke-linecap="round" stroke-linejoin="round" stroke-width="1.5"/>
  </g>
</svg>
