<svg xmlns="http://www.w3.org/2000/svg" width="36.5" height="39" viewBox="0 0 36.5 39">
  <g id="transport" transform="translate(-0.25 -0.522)">
    <path id="Path_145" data-name="Path 145" d="M6,33.772v2.5a2.5,2.5,0,0,0,5,0v-2.5Z" fill="#f8eeed"/>
    <path id="Path_146" data-name="Path 146" d="M26,33.772v2.5a2.5,2.5,0,0,0,5,0v-2.5Z" fill="#f8eeed"/>
    <path id="Path_147" data-name="Path 147" d="M18.5,1.272c-6.9,0-15,4.347-15,11.25v18.75a2.5,2.5,0,0,0,2.5,2.5H31a2.5,2.5,0,0,0,2.5-2.5V12.522C33.5,5.618,25.4,1.272,18.5,1.272Z" fill="#f8eeed"/>
    <path id="Path_148" data-name="Path 148" d="M3.5,18.772h0Z" fill="#f8eeed"/>
    <path id="Path_149" data-name="Path 149" d="M4.363,8.772h0Z" fill="#f8eeed"/>
    <path id="Path_150" data-name="Path 150" d="M18.5,18.772v0Z" fill="#f8eeed"/>
    <path id="Path_151" data-name="Path 151" d="M8.5,28.147a.625.625,0,0,1,.625.625Z" fill="#f8eeed"/>
    <path id="Path_152" data-name="Path 152" d="M7.875,28.772a.625.625,0,0,1,.625-.625Z" fill="#f8eeed"/>
    <path id="Path_153" data-name="Path 153" d="M8.5,29.4a.625.625,0,0,1-.625-.625Z" fill="#f8eeed"/>
    <path id="Path_154" data-name="Path 154" d="M9.125,28.772A.625.625,0,0,1,8.5,29.4Z" fill="#f8eeed"/>
    <path id="Path_155" data-name="Path 155" d="M28.5,28.147a.625.625,0,0,1,.625.625Z" fill="#f8eeed"/>
    <path id="Path_156" data-name="Path 156" d="M27.875,28.772a.625.625,0,0,1,.625-.625Z" fill="#f8eeed"/>
    <path id="Path_157" data-name="Path 157" d="M28.5,29.4a.625.625,0,0,1-.625-.625Z" fill="#f8eeed"/>
    <path id="Path_158" data-name="Path 158" d="M29.125,28.772a.625.625,0,0,1-.625.625Z" fill="#f8eeed"/>
    <path id="Path_159" data-name="Path 159" d="M18.5,33.772c0-3.75-5-12.5-15-15Z" fill="#f8eeed"/>
    <path id="Path_160" data-name="Path 160" d="M18.5,33.772c0-3.75,5-12.5,15-15Z" fill="#f8eeed"/>
    <path id="Path_161" data-name="Path 161" d="M3.5,16.272h0Z" fill="#f8eeed"/>
    <path id="Path_162" data-name="Path 162" d="M36,16.272h0Z" fill="#f8eeed"/>
    <path id="Path_163" data-name="Path 163" d="M6,33.772v2.5a2.5,2.5,0,0,0,5,0v-2.5Zm0,0a2.5,2.5,0,0,1-2.5-2.5V12.522c0-6.9,8.1-11.25,15-11.25s15,4.347,15,11.25v18.75a2.5,2.5,0,0,1-2.5,2.5m-25,0H31m0,0v2.5a2.5,2.5,0,0,1-5,0v-2.5Zm-26.637-25H32.637m-14.137,10v-10m-15,7.5H1m35,0H33.5m-30,2.5h30c-10,2.5-15,11.25-15,15C18.5,30.022,13.5,21.272,3.5,18.772Zm5,9.375a.625.625,0,1,1-.625.625A.625.625,0,0,1,8.5,28.147Zm20,0a.625.625,0,1,1-.625.625A.625.625,0,0,1,28.5,28.147Z" fill="none" stroke="#d74f3f" stroke-linecap="round" stroke-linejoin="round" stroke-width="1.5"/>
  </g>
</svg>
