<?xml version="1.0" encoding="iso-8859-1"?>
<!-- Generator: Adobe Illustrator 19.0.0, SVG Export Plug-In . SVG Version: 6.00 Build 0)  -->
<svg version="1.1" id="Capa_1" xmlns="http://www.w3.org/2000/svg" xmlns:xlink="http://www.w3.org/1999/xlink" x="0px" y="0px"
	 viewBox="0 0 512 512" style="enable-background:new 0 0 512 512;" xml:space="preserve">
<path style="fill:#00A7CC;" d="M256.001,324.263h34.132c47.129,0,85.335,38.206,85.335,85.335V512H0.001V409.598
	c0-47.129,38.205-85.335,85.335-85.335h34.133H256.001z"/>
<g>
	<path style="fill:#0095C2;" d="M195.735,512v-42.665c0-4.418-3.581-8-8-8c-4.418,0-8,3.581-8,8V512H195.735z"/>
	<path style="fill:#0095C2;" d="M255.725,324.265l32.46,80.498c1.135,2.815,0.136,6.042-2.392,7.723l-98.334,65.381h0.275
		L89.656,412.48c-2.518-1.679-3.516-4.892-2.392-7.702l32.204-80.513h136.257V324.265z"/>
</g>
<polygon style="fill:#C1C1C1;" points="238.934,392.532 187.734,477.868 136.533,392.532 136.533,341.331 238.934,341.331 "/>
<g>
	<polygon style="fill:#DC9B90;" points="145.343,273.066 145.343,341.331 187.734,341.331 230.126,341.331 230.126,273.065 	"/>
	<path style="fill:#DC9B90;" d="M281.602,127.998h17.066c9.426,0,17.067,7.641,17.067,17.067v42.668
		c0,9.426-7.641,17.067-17.067,17.067h-17.066H93.867H76.801c-9.425,0-17.067-7.641-17.067-17.067v-42.668
		c0-9.426,7.641-17.067,17.067-17.067h17.066H281.602z"/>
</g>
<path style="fill:#F2A99B;" d="M195.413,34.133h52.055c18.851,0,34.133,15.282,34.133,34.133v128.001
	c0,51.841-42.025,93.867-93.866,93.867s-93.866-42.025-93.866-93.867V68.266c0-12.632,6.862-23.662,17.063-29.564L195.413,34.133z"
	/>
<g>
	<polygon style="fill:#EEEEEF;" points="145.343,298.666 119.469,324.265 136.533,392.532 187.734,341.331 	"/>
	<polygon style="fill:#EEEEEF;" points="230.127,298.666 256.001,324.265 238.936,392.532 187.735,341.331 	"/>
</g>
<polygon style="fill:#F35657;" points="187.734,477.868 206.698,446.262 196.268,401.066 179.201,401.066 168.771,446.263 "/>
<path style="fill:#EEEEEF;" d="M477.867,51.2H375.465c-18.85,0-34.132,15.282-34.132,34.132v102.401
	c0,18.85,15.282,34.132,34.132,34.132h8.534v14.934c0,6.15,7.829,8.761,11.521,3.839l14.079-18.774h68.268
	c18.85,0,34.132-15.282,34.132-34.132v-102.4C511.999,66.481,496.718,51.2,477.867,51.2z"/>
<g>
	<path style="fill:#D9D9D9;" d="M395.519,240.639l14.079-18.774h-25.6v14.934C383.999,242.95,391.828,245.559,395.519,240.639z"/>
	<path style="fill:#D9D9D9;" d="M477.867,51.2h-25.6c18.85,0,34.132,15.282,34.132,34.132v102.401
		c0,18.85-15.282,34.132-34.132,34.132h25.6c18.85,0,34.132-15.282,34.132-34.132V85.332C511.999,66.481,496.717,51.2,477.867,51.2z
		"/>
</g>
<g>
	<path style="fill:#2E4F5A;" d="M281.601,127.997V68.266c0-18.851-15.283-34.134-34.134-34.134h-52.055l-84.483,4.569
		c-10.2,5.903-17.063,16.932-17.063,29.565v59.732c23.564,0,42.666-19.103,42.666-42.667h102.4
		C238.934,108.895,258.037,127.998,281.601,127.997L281.601,127.997z"/>
	<path style="fill:#2E4F5A;" d="M153.601,85.333c-23.564,0-42.667-19.103-42.667-42.667C110.934,19.103,130.037,0,153.601,0
		s42.667,19.103,42.667,42.667L153.601,85.333z"/>
</g>
<path style="fill:#2A4752;" d="M247.468,34.133h-25.6c18.851,0,34.134,15.282,34.134,34.134v51.199
	c7.131,5.357,15.994,8.532,25.599,8.532v-0.001V68.266C281.601,49.415,266.319,34.133,247.468,34.133z"/>
<polygon style="fill:#F35657;" points="153.599,375.466 179.201,401.066 196.268,401.066 221.87,375.466 187.735,341.331 "/>
<polygon style="fill:#CC4142;" points="187.735,341.331 174.935,354.132 196.269,375.466 174.934,396.799 179.201,401.066 
	196.268,401.066 221.87,375.466 "/>
<path style="fill:#0095C2;" d="M290.133,324.263h-25.602c47.129,0,85.335,38.206,85.335,85.335V512h25.602V409.598
	C375.468,362.469,337.263,324.263,290.133,324.263z"/>
<path style="fill:#EEEEEF;" d="M273.067,462.935v12.8c0,3.535,2.865,6.399,6.4,6.399h55.467c3.535,0,6.401-2.865,6.401-6.399v-12.8
	c0-3.535-2.865-6.4-6.401-6.4h-55.466C275.933,456.534,273.067,459.4,273.067,462.935z"/>
<path style="fill:#D9D9D9;" d="M315.733,456.534v25.6h19.199c3.535,0,6.399-2.865,6.399-6.399v-12.8c0-3.535-2.865-6.4-6.399-6.4
	h-19.199V456.534z"/>
<path style="fill:#00B39E;" d="M494.126,85.374v-0.042c0-0.074-0.009-0.147-0.011-0.221c-0.005-0.17-0.009-0.341-0.025-0.51
	c-0.009-0.095-0.027-0.189-0.039-0.283c-0.021-0.155-0.039-0.309-0.069-0.463c-0.017-0.09-0.042-0.178-0.063-0.268
	c-0.036-0.157-0.071-0.312-0.117-0.467c-0.024-0.078-0.053-0.153-0.078-0.231c-0.054-0.163-0.108-0.325-0.173-0.483
	c-0.027-0.065-0.059-0.128-0.088-0.193c-0.073-0.166-0.147-0.332-0.233-0.493c-0.031-0.059-0.067-0.114-0.099-0.171
	c-0.091-0.161-0.182-0.321-0.285-0.477c-0.041-0.063-0.089-0.122-0.132-0.183c-0.101-0.143-0.202-0.286-0.314-0.424
	c-0.062-0.076-0.13-0.147-0.195-0.221c-0.102-0.116-0.202-0.233-0.312-0.344c-0.01-0.01-0.019-0.022-0.029-0.032
	c-0.082-0.083-0.173-0.157-0.26-0.235c-0.083-0.076-0.162-0.158-0.249-0.231c-0.01-0.008-0.022-0.015-0.033-0.025
	c-0.105-0.087-0.215-0.164-0.325-0.244c-0.1-0.074-0.199-0.154-0.301-0.223c-0.061-0.04-0.125-0.074-0.186-0.112
	c-1.035-0.653-2.18-1.039-3.344-1.154c-0.024-0.002-0.048-0.002-0.073-0.004c-0.225-0.02-0.449-0.033-0.674-0.033
	c-0.007,0-0.013-0.001-0.021-0.001l-17.066,0.002c-4.267,0.001-7.726,3.459-7.725,7.727c0,4.267,3.46,7.726,7.727,7.725h0.54
	l-35.026,41.921l-19.629-20.818c-1.595-1.689-3.858-2.564-6.184-2.405c-2.318,0.169-4.437,1.373-5.769,3.278l-41.782,59.734
	c-2.446,3.497-1.594,8.314,1.903,10.759c1.349,0.944,2.893,1.396,4.422,1.396c2.436,0,4.835-1.15,6.338-3.299l36.341-51.956
	l19.087,20.243c1.515,1.607,3.647,2.465,5.853,2.423c2.208-0.066,4.281-1.074,5.697-2.769l38.304-45.846
	c1.243,2.602,3.891,4.404,6.967,4.404c4.267,0,7.726-3.458,7.726-7.726V85.39C494.126,85.384,494.126,85.379,494.126,85.374z"/>
<g>
</g>
<g>
</g>
<g>
</g>
<g>
</g>
<g>
</g>
<g>
</g>
<g>
</g>
<g>
</g>
<g>
</g>
<g>
</g>
<g>
</g>
<g>
</g>
<g>
</g>
<g>
</g>
<g>
</g>
</svg>
