<?xml version="1.0" encoding="iso-8859-1"?>
<!-- Generator: Adobe Illustrator 19.0.0, SVG Export Plug-In . SVG Version: 6.00 Build 0)  -->
<svg version="1.1" id="Capa_1" xmlns="http://www.w3.org/2000/svg" xmlns:xlink="http://www.w3.org/1999/xlink" x="0px" y="0px"
	 viewBox="0 0 512 512" style="enable-background:new 0 0 512 512;" xml:space="preserve">
<g>
	<path style="fill:#494949;" d="M471.761,32.741h-81.346c-4.147,0-7.509,3.362-7.509,7.509v65.461c0,4.147,3.362,7.509,7.509,7.509
		h81.346c22.188,0,40.239-18.051,40.239-40.239S493.949,32.741,471.761,32.741z"/>
	<path style="fill:#494949;" d="M121.584,32.741H40.239C18.051,32.741,0,50.791,0,72.98s18.051,40.239,40.239,40.239h81.346
		c4.147,0,7.509-3.362,7.509-7.509V40.249C129.093,36.103,125.731,32.741,121.584,32.741z"/>
</g>
<g>
	<path style="fill:#353535;" d="M390.416,67.628h81.346c15.942,0,29.748,9.319,36.257,22.795C510.569,85.143,512,79.226,512,72.98
		c0-22.188-18.051-40.239-40.239-40.239h-81.346c-4.147,0-7.509,3.362-7.509,7.509v34.889
		C382.907,70.99,386.269,67.628,390.416,67.628z"/>
	<path style="fill:#353535;" d="M121.584,32.741H40.239C18.051,32.741,0,50.791,0,72.98c0,6.246,1.431,12.164,3.982,17.444
		c6.509-13.476,20.315-22.795,36.257-22.795h81.346c4.147,0,7.509,3.362,7.509,7.509V40.249
		C129.093,36.103,125.731,32.741,121.584,32.741z"/>
</g>
<path style="fill:#8ACC19;" d="M390.194,32.741H121.806v439.01c0,4.147,3.362,7.509,7.509,7.509h253.372
	c4.147,0,7.509-3.362,7.509-7.509V32.741z"/>
<g>
	<rect x="121.809" y="32.741" style="fill:#78AA17;" width="268.386" height="34.539"/>
	<path style="fill:#78AA17;" d="M358.062,32.741H153.938v374.913c0,4.129,3.332,7.517,7.46,7.509
		c13.616-0.026,24.698,11.057,24.672,24.672c-0.008,4.129,3.38,7.46,7.509,7.46h124.84c4.129,0,7.517-3.332,7.509-7.46
		c-0.026-13.616,11.057-24.698,24.672-24.672c4.129,0.008,7.46-3.38,7.46-7.509L358.062,32.741L358.062,32.741z"/>
</g>
<rect x="153.935" y="32.741" style="fill:#6D8915;" width="204.122" height="34.539"/>
<path style="fill:#FFDB56;" d="M256.001,151.758c-40.148,0-72.81,32.662-72.81,72.811c0,40.148,32.662,72.81,72.81,72.81
	s72.81-32.662,72.81-72.81C328.81,184.42,296.148,151.758,256.001,151.758z"/>
<g>
</g>
<g>
</g>
<g>
</g>
<g>
</g>
<g>
</g>
<g>
</g>
<g>
</g>
<g>
</g>
<g>
</g>
<g>
</g>
<g>
</g>
<g>
</g>
<g>
</g>
<g>
</g>
<g>
</g>
</svg>
